<svg width="323" height="442" viewBox="0 0 323 442" fill="none" xmlns="http://www.w3.org/2000/svg">
<path d="M0 95.5V8C0 3.58172 3.58172 0 8 0H50.3945C52.6871 0 54.8696 0.983632 56.3881 2.70129L133.743 90.2013C138.308 95.3652 134.642 103.5 127.75 103.5H8C3.58172 103.5 0 99.9183 0 95.5Z" fill="black"/>
<path d="M0 239V139V122.448C0 115.042 9.19581 111.612 14.0458 117.209L284.027 428.761C288.517 433.942 284.837 442 277.982 442H219.618C217.318 442 215.13 441.01 213.611 439.283L46.8893 249.717C45.3705 247.99 43.1819 247 40.8821 247H8C3.58172 247 0 243.418 0 239Z" fill="black"/>
<path d="M0 434V268.21C0 260.833 9.13543 257.387 14.0072 262.927L159.818 428.717C164.363 433.885 160.693 442 153.81 442H8C3.58172 442 0 438.418 0 434Z" fill="black"/>
<path d="M185.249 0H120.193C113.231 0 109.592 8.27694 114.298 13.4076L228.202 137.592C232.908 142.723 229.269 151 222.307 151H106.417C99.5785 151 95.8926 159.025 100.348 164.213L199.799 279.999C202.294 282.904 206.631 283.566 209.929 281.621C409.463 163.981 308.535 4.77718 185.249 0Z" fill="black"/>
</svg>
